<svg xmlns="http://www.w3.org/2000/svg" viewBox="0 0 55.52 83.43">
  <defs>
    <style>
      .cls-1 {
        fill: #4a1e12;
      }

      .cls-1, .cls-10, .cls-11, .cls-2, .cls-3, .cls-4, .cls-5, .cls-6, .cls-7, .cls-8 {
        fill-rule: evenodd;
      }

      .cls-2 {
        fill: #df2e26;
      }

      .cls-3 {
        fill: #f5b67e;
      }

      .cls-4 {
        fill: #e53825;
      }

      .cls-5 {
        fill: #f6c085;
      }

      .cls-6 {
        fill: #f8c997;
      }

      .cls-7 {
        fill: #efefef;
      }

      .cls-8, .cls-9 {
        fill: #3e3b3a;
      }

      .cls-10 {
        fill: #d6825b;
      }

      .cls-11 {
        fill: #e5b17d;
      }
    </style>
  </defs>
  <title>avatar-4</title>
  <g id="Layer_2" data-name="Layer 2">
    <g id="OBJECTS">
      <g>
        <path class="cls-1" d="M6.78,28.88C6.9,30,9.45,40,8.59,47.23A138.7,138.7,0,0,1,6,61.51c16,3.33,26,1.43,41.52-1,0,0,1-4.73-.88-13.73s2.41-19.27,2.41-19.27Z"/>
        <path class="cls-1" d="M37.37,4.34C68.1-.92,39,46.91,55.24,59.22c2.31,1.75-10.55,9.48-15.35,1.52-3-5,6.83-14.1,7.46-26.93s-3.89-17.24-6.65-22.09A31.13,31.13,0,0,1,37.37,4.34Z"/>
        <path class="cls-1" d="M41.59,6.25c.83,7.27-1.11,8.16-7,12s-8.39,3.88-7.44,3.41,5.46-8.31,5.46-8.31a56.38,56.38,0,0,1-12.27,7.36c-6.18,2.45-8.39,1.5-8.39,1.5s5.46-7.13,4.75-6.57-5.94,4-6.65,5.54-2.23,8.7-1.36,16.54S17.8,60.51,13.13,63.6c-6.28,4.15-14.3-3.52-13-3.86C9.91,57.27,4.68,19.5,5,17.25A20,20,0,0,1,12.73,4.38C20.52-1.82,40.69-1.65,41.59,6.25Z"/>
        <path class="cls-2" d="M37,70.74l10.48-7.91c4.59,1.51,5.92,14.53,6.38,20.61h-11Z"/>
        <path class="cls-3" d="M27.57,54.24H22.73v3.06c0,1.9-.31,1.5-2.09,2.49a14.89,14.89,0,0,1-2.23,1.57c2.15,6.93,3.71,15.83,7.91,22.08h2.5c4.2-6.25,5.76-15.15,7.91-22.08a14.89,14.89,0,0,1-2.23-1.57c-1.77-1-2.09-.59-2.09-2.49V54.24Z"/>
        <path class="cls-2" d="M18.43,70.74,8,62.83C3.36,64.34,2,77.36,1.57,83.43h11Z"/>
        <path class="cls-4" d="M20.64,59.81C18.06,61,9.16,62,8.1,62.94c.86,1.87,6.2,10.83,2.77,20.49H44.53a35.92,35.92,0,0,1,3.36-20.37c-1.05-.91-10.6-1.93-13.18-3.11,3.13,2.43-2.51,9.9-7.14,10.22C22.93,69.85,17.56,62.2,20.64,59.81Z"/>
        <g>
          <path class="cls-5" d="M13.34,30.37c.8,3.61-.79,6.61-3.52,7.26s-5.56-1.31-6.36-4.92.76-7.06,3.49-7.7S12.54,26.77,13.34,30.37Z"/>
          <path class="cls-5" d="M42.87,30.37c-.8,3.61.79,6.61,3.52,7.26s5.56-1.31,6.36-4.92S52,25.66,49.26,25,43.67,26.77,42.87,30.37Z"/>
        </g>
        <path class="cls-6" d="M28.1,1H28L25.2.92v.23h-.3A19.52,19.52,0,0,0,10.2,9.24C6.7,14,6.24,20,6.51,25.68,7.22,40.38,15.46,56.89,28.1,57,40.75,56.89,49,40.38,49.69,25.68,50,20,49.51,14,46,9.24A19.52,19.52,0,0,0,31.31,1.15H31V.92L28.17,1Z"/>
        <path class="cls-1" d="M17.82,2.17C18,1.58,26,.45,26.79.41,31.28.13,37.14,1.05,40,2.6s6.69,5.54,7.27,7,.46,1.62-6.69,6.58-17.89,7.24-15.12,6.35,5-5.46,5-5.46-1.9,2.23-11.36,5.58S7.11,25,7.11,25a12.47,12.47,0,0,1-1.37-9.89c1.65-5.44,3-5.86,6.16-9A14.64,14.64,0,0,1,17.82,2.17Z"/>
        <path class="cls-1" d="M37.09,6.72c-.17.81,0,5.14,5,11.77s5.37,7.21,5.37,7.21.15,12.15.21,11.63,2.67-12.59,2.67-12.59a31.38,31.38,0,0,0-.57-10.35c-1.27-5.19-2.87-7.15-5.07-8S37.09,6.72,37.09,6.72Z"/>
        <path class="cls-1" d="M9.34,20.75C8.47,21.73,5.82,24,5.82,24L8.68,37.43Z"/>
        <path class="cls-4" d="M10.24,62.29a7.39,7.39,0,0,0-2.32.77C13.16,73,5.42,77,8.27,83.43H47.94C50.79,77,43.05,73,48.29,63.06A7.39,7.39,0,0,0,46,62.29C44.68,68.9,37.18,74,28.1,74S11.53,68.9,10.24,62.29Z"/>
        <path class="cls-7" d="M27.57,70.18C24.4,70,20.88,66.31,20,63.26c-.43-1.41-.3-2.69.68-3.45l-.06,0c-.2.09-.44.18-.7.26-1.23.53-3.59,1.67-4.37,2.87a1.29,1.29,0,0,0-.24.95c.38,2,3.4,2,3.4,2a6.9,6.9,0,0,0,.06,2.28c.43,2.77,1.53,4.24,2.94,4.67C23.38,73.4,25.56,72.35,27.57,70.18Z"/>
        <path class="cls-7" d="M27.57,70.18c3.18-.22,6.69-3.87,7.61-6.92.43-1.41.29-2.72-.68-3.48a7.66,7.66,0,0,0,.77.32c1.23.53,3.59,1.67,4.37,2.87a1.29,1.29,0,0,1,.24.95c-.37,2-3.4,2-3.4,2a6.9,6.9,0,0,1-.06,2.28C36,71,34.88,72.46,33.47,72.88,31.76,73.4,29.58,72.35,27.57,70.18Z"/>
        <path class="cls-8" d="M27,31.62a3,3,0,0,1,1.14-.15,3,3,0,0,1,1.14.15,1.33,1.33,0,0,1,.83,1c.16.6.31,1.2.48,1.79a14.09,14.09,0,0,0,1.4,3.4c1,1.68,2.68,1.9,4.18,2.09a21,21,0,0,0,8.27-.29,5,5,0,0,0,1.18-.47,3,3,0,0,0,1.31-1.51,20.61,20.61,0,0,0,.81-2.31l.51-1.71a3.11,3.11,0,0,1,.48-1,8,8,0,0,0,.49-.83,1.44,1.44,0,0,0,.16-.63c0-.79.08-1.61.09-2.4,0-2.12-9.69-1.75-10.82-1.7-.51,0-1,.05-1.54.1a25.09,25.09,0,0,0-5.36.93A13.37,13.37,0,0,1,28.1,29a13.37,13.37,0,0,1-3.63-.84,25.09,25.09,0,0,0-5.36-.93c-.51,0-1-.08-1.54-.1-1.13-.05-10.86-.42-10.82,1.7,0,.79.05,1.61.09,2.4a1.44,1.44,0,0,0,.16.63,8,8,0,0,0,.49.83,3.12,3.12,0,0,1,.48,1c.17.57.34,1.14.51,1.71a20.59,20.59,0,0,0,.81,2.31,3,3,0,0,0,1.31,1.51,5,5,0,0,0,1.18.47,21,21,0,0,0,8.27.29c1.51-.19,3.17-.42,4.18-2.09a14.1,14.1,0,0,0,1.4-3.4c.17-.59.32-1.19.48-1.79a1.33,1.33,0,0,1,.83-1Zm4.23-1.39h0a1.7,1.7,0,0,1,.85-1A14.14,14.14,0,0,1,36.75,28,40.16,40.16,0,0,1,44.62,28a5.77,5.77,0,0,1,2.44.73,1.79,1.79,0,0,1,.54,1.35,20.47,20.47,0,0,1-.45,4.48A11.36,11.36,0,0,1,46,37.83a2.74,2.74,0,0,1-1.37,1.06,7.62,7.62,0,0,1-.87.27,17.84,17.84,0,0,1-7.44.15c-.57-.09-1.14-.22-1.7-.35a3,3,0,0,1-2.09-1.55,13,13,0,0,1-1.33-4.26,11.24,11.24,0,0,1-.14-1.93,3.59,3.59,0,0,1,.14-1Zm-6.17,0h0a3.57,3.57,0,0,1,.14,1A11.2,11.2,0,0,1,25,33.16a13.05,13.05,0,0,1-1.33,4.26A3,3,0,0,1,21.59,39c-.57.13-1.13.26-1.7.35a17.84,17.84,0,0,1-7.44-.15,7.59,7.59,0,0,1-.87-.27,2.74,2.74,0,0,1-1.37-1.06,11.35,11.35,0,0,1-1.13-3.28,20.48,20.48,0,0,1-.45-4.48,1.79,1.79,0,0,1,.54-1.35A5.77,5.77,0,0,1,11.59,28a40.16,40.16,0,0,1,7.86.05,14.14,14.14,0,0,1,4.72,1.16A1.7,1.7,0,0,1,25,30.23Z"/>
        <path class="cls-1" d="M11.34,26.63c-1,.41.66-2.28,5.53-2.38,5.68-.12,7.41,2.61,5.17,1.82A15,15,0,0,0,11.34,26.63Z"/>
        <g>
          <circle class="cls-9" cx="17.1" cy="32.06" r="1.67"/>
          <circle class="cls-9" cx="39.11" cy="32.06" r="1.67"/>
        </g>
        <path class="cls-1" d="M45.85,26.63c1,.41-.66-2.28-5.53-2.38-5.68-.12-7.41,2.61-5.17,1.82A15,15,0,0,1,45.85,26.63Z"/>
        <path class="cls-10" d="M32.8,46.64a4.43,4.43,0,0,1,.11,1,4.33,4.33,0,1,1-8.67,0,4.43,4.43,0,0,1,.11-1Z"/>
        <path class="cls-11" d="M25,42.43s0,0,0-.05a.33.33,0,0,1,.14-.24,35.74,35.74,0,0,0,2.66-9.43c.68,0-.67,7.23-1.26,8.94a12.41,12.41,0,0,1,2.08-.16c2,0,3.62.4,3.62.89s-1.62.89-3.62.89S25.07,42.9,25,42.43Z"/>
      </g>
    </g>
  </g>
</svg>
