<svg xmlns="http://www.w3.org/2000/svg" viewBox="0 0 52.01 94.06">
  <defs>
    <style>
      .cls-1 {
        fill: #34333c;
      }

      .cls-1, .cls-10, .cls-2, .cls-3, .cls-4, .cls-5, .cls-6, .cls-8, .cls-9 {
        fill-rule: evenodd;
      }

      .cls-2 {
        fill: #f5b67e;
      }

      .cls-3 {
        fill: #bed53b;
      }

      .cls-4 {
        fill: #f6c085;
      }

      .cls-5 {
        fill: #f8c997;
      }

      .cls-6 {
        fill: #973823;
      }

      .cls-7 {
        fill: #3e3b3a;
      }

      .cls-8 {
        fill: #d6825b;
      }

      .cls-9 {
        fill: #e5b17d;
      }

      .cls-10 {
        fill: #d99e67;
      }
    </style>
  </defs>
  <title>avatar-7</title>
  <g id="Layer_2" data-name="Layer 2">
    <g id="OBJECTS">
      <g>
        <path class="cls-1" d="M16.86,81.36c-.46-.35-10.77-5.2-10.77-5.2C1.5,77.68.47,88,0,94.06H11Z"/>
        <path class="cls-1" d="M35.14,81.36c.46-.35,10.77-5.2,10.77-5.2C50.5,77.68,51.53,88,52,94.06H41Z"/>
        <path class="cls-2" d="M26,64.86H21.16v3.06c0,1.9-.31,1.5-2.09,2.49A14.88,14.88,0,0,1,16.84,72c2.15,6.93,4.39,13.43,8.6,19.68h2.5C32.14,85.41,33,78.9,35.16,72a14.88,14.88,0,0,1-2.23-1.57c-1.77-1-2.09-.59-2.09-2.49V64.86Z"/>
        <path class="cls-3" d="M26,81.5c-8-.63-6.84-11-6.93-11.07-2.58,1.18-12,4.86-13,5.77.86,1.87,2.15,9.57,3.27,17.85H42.7c1.12-8.28,2.42-16,3.27-17.85-1.05-.91-10.46-4.6-13-5.77C32.84,70.49,34,80.87,26,81.5Z"/>
        <path class="cls-4" d="M39,43.31a6.61,6.61,0,0,0,5.22,7.92,6.42,6.42,0,0,0,7.72-5.37c.69-3.94-1.64-7.7-5.21-8.41S39.64,39.37,39,43.31Z"/>
        <path class="cls-4" d="M14,43.31A6.61,6.61,0,0,1,8.8,51.23a6.42,6.42,0,0,1-7.72-5.37c-.69-3.94,1.64-7.7,5.22-8.41S13.33,39.37,14,43.31Z"/>
        <path class="cls-5" d="M44.32,19.86a19.52,19.52,0,0,0-14.71-8.08h-.3v-.23l-2.85.11-2.85-.11v.23h-.3A19.52,19.52,0,0,0,8.62,19.86c-3.49,4.74-4,10.72-3.68,16.44.21,4.32,1,11.31,1.19,15.63,5.55,20.77,35.5,21.11,40.68,0,.21-4.33,1-11.31,1.19-15.63C48.27,30.58,47.81,24.6,44.32,19.86Z"/>
        <path class="cls-6" d="M8.79,27.82c-.28.6,1.31-5.4,4.79-5.5,3.64-.11,26.28,1.27,27.44-.25,3.84,4.86,6.64,24.11,6.85,24.06.51-.1.57-2,.62-2.39A67.26,67.26,0,0,0,49,35.14c0-5.28,1.53-15.44-8-21.77-5.87-3.9-18-4.28-24.77-2.08a17.88,17.88,0,0,0-10.9,10.2c-1.84,5.12-1.79,9.12-1.19,19.25.07,1.1.2,2.2.35,3.29a21.3,21.3,0,0,0,.37,2.18C5.75,50.07,5.84,32.39,8.79,27.82Z"/>
        <circle class="cls-7" cx="15.54" cy="44.81" r="1.67"/>
        <circle class="cls-7" cx="37.41" cy="44.92" r="1.67"/>
        <path class="cls-6" d="M9.78,40.17C9.17,39.29,12,38.63,15,38.42c4.92-.35,7.74,1.85,5.37,1.93C18.55,40.41,10,40.43,9.78,40.17Z"/>
        <path class="cls-6" d="M42.19,40.22c.65-.86-2.18-1.63-5.11-2-4.9-.54-7.8,1.54-5.44,1.72C33.41,40.12,42,40.47,42.19,40.22Z"/>
        <path class="cls-8" d="M32,56.72c-1,5.75-10.29,5.75-11.31,0A33.61,33.61,0,0,0,32,56.72Z"/>
        <path class="cls-9" d="M22.75,53.34s0,0,0-.05a.33.33,0,0,1,.14-.24,35.72,35.72,0,0,0,2.66-9.43c.68,0-.67,7.23-1.26,8.94a12.43,12.43,0,0,1,2.08-.16c2,0,3.62.4,3.62.89s-1.62.89-3.62.89S22.86,53.81,22.75,53.34Z"/>
        <path class="cls-6" d="M8.58,24.82c-.39-2.27-2.27-2.4-1.93-5.06S11,11.92,13.17,9.82A12.2,12.2,0,0,1,17.93,7s-1.46,2.36-.86,1.76S20.67,6.78,22,6s1.89-1.67,1.71-1.24-1,2-.39,1.59S25.47,5.88,27.36,4A22.44,22.44,0,0,0,30.27,0C30.1.48,33,3.86,33.91,5.58S35,8.32,35.2,7.85s1.07-2.23,1.07-2.23a44.27,44.27,0,0,1,4.89,5c1.37,1.89,1.67,3.21,1.84,2.74s.51-1.63.51-1.63,1.84,4.59,1.33,6.9a46.19,46.19,0,0,1-1.6,5.18S30.7,27,26.24,27c-2.11,0-15.64-3.71-15.9-4.76Z"/>
        <path class="cls-10" d="M26,81.51c-8-.63-6.84-11-6.93-11.07l-.07,0c-.51.23-1.26.55-2.16.92q0,.28,0,.57v0A14.14,14.14,0,0,0,20,81.21a7.74,7.74,0,0,0,5.81,2.87c3.1,0,5.83-2.12,7.45-5.34a14.86,14.86,0,0,0,1.48-5.41q.06-.68.06-1.38,0-.08,0-.15,0-.28,0-.56L33,70.46l-.07,0C32.84,70.49,34,80.87,26,81.51Z"/>
        <path class="cls-1" d="M26,81.51c-8-.63-6.84-11-6.93-11.07l-.07,0c-.51.23-1.26.55-2.16.92q0,.28,0,.57v0A14.14,14.14,0,0,0,20,81.21a7.74,7.74,0,0,0,5.81,2.87c3.1,0,5.83-2.12,7.45-5.34a14.86,14.86,0,0,0,1.48-5.41q.06-.68.06-1.38,0-.08,0-.15v-.56L33,70.46l-.07,0C32.84,70.49,34,80.87,26,81.51Z"/>
      </g>
    </g>
  </g>
</svg>
