<svg xmlns="http://www.w3.org/2000/svg" viewBox="0 0 52 83.63">
  <defs>
    <style>
      .cls-1 {
        fill: #1b8ec1;
      }

      .cls-1, .cls-10, .cls-12, .cls-13, .cls-2, .cls-3, .cls-4, .cls-5, .cls-6, .cls-7, .cls-8, .cls-9 {
        fill-rule: evenodd;
      }

      .cls-2 {
        fill: #0095d3;
      }

      .cls-3 {
        fill: #f5b67e;
      }

      .cls-4 {
        fill: #008bcf;
      }

      .cls-5 {
        fill: #007ab4;
      }

      .cls-6 {
        fill: #2aa5dd;
      }

      .cls-7 {
        fill: #f6c085;
      }

      .cls-8 {
        fill: #f8c997;
      }

      .cls-9 {
        fill: #bf9141;
      }

      .cls-10, .cls-11 {
        fill: #3e3b3a;
      }

      .cls-12 {
        fill: #d6825b;
      }

      .cls-13 {
        fill: #e5b17d;
      }
    </style>
  </defs>
  <title>avatar-3</title>
  <g id="Layer_2" data-name="Layer 2">
    <g id="OBJECTS">
      <g>
        <polygon class="cls-1" points="19.43 61.5 19.29 56.91 33.77 56.91 33.63 61.35 19.43 61.5"/>
        <path class="cls-2" d="M16.86,70.93c-.46-.35-10.77-5.2-10.77-5.2C1.5,67.25.47,77.56,0,83.63H11Z"/>
        <path class="cls-2" d="M35.14,70.93c.46-.35,10.77-5.2,10.77-5.2,4.59,1.51,5.62,11.82,6.09,17.9H41Z"/>
        <path class="cls-3" d="M26,54.43H21.16v3.06c0,1.9-.31,1.5-2.09,2.49a14.9,14.9,0,0,1-2.23,1.57C19,68.48,20.72,75.71,24.92,82h2.5c4.2-6.25,5.59-13.48,7.74-20.4A14.89,14.89,0,0,1,32.93,60c-1.77-1-2.09-.59-2.09-2.49V54.43Z"/>
        <path class="cls-4" d="M26.43,71.25s-1.51-2-2.21-3.12C22.13,64.71,19.14,60,19.07,60c-2.58,1.18-12,4.86-13,5.77.85,1.87,2.15,9.57,3.27,17.85H42.7c1.12-8.28,2.42-16,3.27-17.85-1.05-.91-10.46-4.6-13-5.77a59.22,59.22,0,0,1-4.1,8.12C27.93,69.48,26.43,71.25,26.43,71.25Z"/>
        <path class="cls-5" d="M21.48,64.18c.26,0,1.72.23,1.72.23l1,3.71-3.67-1.69Z"/>
        <path class="cls-6" d="M19.29,56.91l3.91,7.5s-4,4-4,3.78S17.43,61,17.57,60.66,19.29,56.91,19.29,56.91Z"/>
        <path class="cls-5" d="M31.57,64.18c-.26,0-1.72.23-1.72.23l-1,3.71,3.67-1.69Z"/>
        <path class="cls-6" d="M33.77,56.91l-3.91,7.5s4,4,4,3.78,1.81-7.17,1.67-7.54S33.77,56.91,33.77,56.91Z"/>
        <path class="cls-7" d="M38.48,32.16a6.1,6.1,0,0,0,5.22,7.26c3.57.65,7-1.31,7.72-4.92a6.53,6.53,0,0,0-5.21-7.7A6.7,6.7,0,0,0,38.48,32.16Z"/>
        <path class="cls-7" d="M13.55,32.16a6.1,6.1,0,0,1-5.22,7.26c-3.57.65-7-1.31-7.72-4.92a6.53,6.53,0,0,1,5.22-7.7A6.7,6.7,0,0,1,13.55,32.16Z"/>
        <path class="cls-8" d="M43.85,9.27A19.52,19.52,0,0,0,29.14,1.19h-.3V.95L26,1.06,23.15.95v.23h-.3A19.52,19.52,0,0,0,8.15,9.27C4.66,14,4.2,20,4.47,25.71c.71,14.7,2,31.17,21.59,31.34S46.82,40.31,47.53,25.71C47.8,20,47.34,14,43.85,9.27Z"/>
        <path class="cls-9" d="M6.61,30.45c.26-5.42.33-15.22,5.07-15.22.12,0,14.42-5.92,30.87-5.92,3.79,0,4.73,10.76,4.8,17.84.06,6.1-1.09,8.91-.65,9.1s2.63-3.32,2.62-11.92c0-3.88-.1-9.91-3.48-15.6-1.19-2-2-4.42-4.43-6.06-5.79-3.87-18.17-3-24.84-.8C-1.86,7.95,4.7,36.17,5.3,36.11S6.57,31.2,6.61,30.45Z"/>
        <path class="cls-9" d="M28.3,6.15C30.61,6,41.9,9.06,41.9,9.06c-8.44,8.39-22.13,14-34,11.8,0,0,5.42-3.46,5-3.12A20.26,20.26,0,0,1,6.25,18.9c-1.6-.2-1.52-.78-1.52-.78C14,9.6,13.74,9.68,28.3,6.15Z"/>
        <path class="cls-10" d="M23.45,28.3a3.88,3.88,0,0,0-1.56-1.18C18,25.71,7.14,26.3,4.25,27c-.37.09-.41.08-.45.33a8.07,8.07,0,0,0,.07,2c.12.23.69.32,1.19,1.06.9,1.33.84,6.16,3,8.45s10.7,2.46,13-.7a25.68,25.68,0,0,0,3.08-6.64,1.9,1.9,0,0,1,1.3-.6,4,4,0,0,1,1.14,0,1.9,1.9,0,0,1,1.3.6,25.68,25.68,0,0,0,3.08,6.64c2.29,3.16,10.76,3.07,13,.7s2.09-7.12,3-8.45c.5-.74,1.07-.84,1.19-1.06a8,8,0,0,0,.07-2c0-.25-.08-.24-.45-.33-2.88-.72-13.72-1.31-17.64.11a3.88,3.88,0,0,0-1.56,1.18,7.59,7.59,0,0,1-2.55.15,7.59,7.59,0,0,1-2.55-.15Zm20.35-.52h0A1.78,1.78,0,0,1,45.23,29a11.87,11.87,0,0,1,0,4.79,10.68,10.68,0,0,1-1.51,4.07c-2.34,2.91-10.08,2.57-12,.06-1.48-1.93-4-7.67-.92-9.3,2.66-1.4,10.3-1.69,13-.78Zm-35.62,0h0c2.71-.9,10.35-.62,13,.78,3.1,1.63.57,7.37-.92,9.3-1.93,2.51-9.67,2.85-12-.06a10.68,10.68,0,0,1-1.51-4.07,11.87,11.87,0,0,1,0-4.79A1.78,1.78,0,0,1,8.19,27.79Z"/>
        <g>
          <circle class="cls-11" cx="15.07" cy="33.43" r="1.67"/>
          <circle class="cls-11" cx="36.94" cy="33.43" r="1.67"/>
        </g>
        <path class="cls-12" d="M34.05,45.67A9.63,9.63,0,0,1,26.46,49a9.63,9.63,0,0,1-7.59-3.29,13.06,13.06,0,0,0,7.5,2.72A13.62,13.62,0,0,0,34.05,45.67Z"/>
        <path class="cls-13" d="M22.63,43.39s0,0,0-.05a.33.33,0,0,1,.14-.24,35.73,35.73,0,0,0,2.66-9.43c.68,0-.67,7.23-1.26,8.94a12.4,12.4,0,0,1,2.08-.16c2,0,3.62.4,3.62.89s-1.62.89-3.62.89S22.74,43.86,22.63,43.39Z"/>
        <path class="cls-9" d="M9.15,24.88c-.54-.93,2.36-1.36,5.3-1.34,4.93,0,7.57,2.45,5.2,2.34C17.88,25.81,9.31,25.15,9.15,24.88Z"/>
        <path class="cls-9" d="M42.68,24.77c.54-.93-2.36-1.36-5.3-1.34-4.93,0-7.57,2.45-5.2,2.34C34,25.69,42.52,25,42.68,24.77Z"/>
      </g>
    </g>
  </g>
</svg>
