<svg xmlns="http://www.w3.org/2000/svg" viewBox="0 0 55.01 86.28">
  <defs>
    <style>
      .cls-1 {
        fill: #e7a123;
      }

      .cls-1, .cls-10, .cls-11, .cls-2, .cls-3, .cls-4, .cls-5, .cls-6, .cls-7, .cls-8 {
        fill-rule: evenodd;
      }

      .cls-2 {
        fill: #f5b67e;
      }

      .cls-3 {
        fill: #f3ab1c;
      }

      .cls-4 {
        fill: #f6c085;
      }

      .cls-5 {
        fill: #f8c997;
      }

      .cls-6 {
        fill: #d6825b;
      }

      .cls-7 {
        fill: #a74125;
      }

      .cls-8 {
        fill: #ed8322;
      }

      .cls-9 {
        fill: #3e3b3a;
      }

      .cls-10 {
        fill: #ed7f22;
      }

      .cls-11 {
        fill: #e5b17d;
      }
    </style>
  </defs>
  <title>avatar-9</title>
  <g id="Layer_2" data-name="Layer 2">
    <g id="OBJECTS">
      <g>
        <path class="cls-1" d="M19.86,73.58c-.46-.35-10.77-5.2-10.77-5.2C4.49,69.9,3.46,80.2,3,86.28H14Z"/>
        <path class="cls-1" d="M38.14,73.58c.46-.35,10.77-5.2,10.77-5.2C53.5,69.9,54.53,80.2,55,86.28H44Z"/>
        <path class="cls-2" d="M29,57.08H24.16v3.06c0,1.9-.31,1.5-2.09,2.49a14.89,14.89,0,0,1-2.23,1.57C22,71.12,23.54,80,27.75,86.28h2.5C34.45,80,36,71.12,38.16,64.2a14.9,14.9,0,0,1-2.23-1.57c-1.77-1-2.09-.59-2.09-2.49V57.08Z"/>
        <path class="cls-3" d="M22.07,62.65c-2.58,1.18-12,4.86-13,5.77C9.88,70.3,11.18,78,12.3,86.28H45.7C46.82,78,48.12,70.3,49,68.43c-1.05-.91-10.46-4.6-13-5.77C37.55,73,20.16,71.73,22.07,62.65Z"/>
        <path class="cls-4" d="M41.95,34.36a6.1,6.1,0,0,0,5.22,7.26c3.57.65,7-1.31,7.72-4.92A6.53,6.53,0,0,0,49.67,29,6.7,6.7,0,0,0,41.95,34.36Z"/>
        <path class="cls-4" d="M17,34.36a6.1,6.1,0,0,1-5.22,7.26c-3.57.65-7-1.31-7.72-4.92A6.53,6.53,0,0,1,9.29,29,6.7,6.7,0,0,1,17,34.36Z"/>
        <path class="cls-5" d="M47.32,12.08A19.52,19.52,0,0,0,32.61,4h-.3V3.76l-2.85.11-2.85-.11V4h-.3a19.52,19.52,0,0,0-14.71,8.08c-3.49,4.74-4,10.72-3.68,16.44.71,14.7,2,31.17,21.59,31.34S50.29,43.12,51,28.52C51.27,22.8,50.81,16.83,47.32,12.08Z"/>
        <path class="cls-6" d="M33.54,45a4.45,4.45,0,0,1,.11,1A4.33,4.33,0,1,1,25,46a4.44,4.44,0,0,1,.11-1Z"/>
        <path class="cls-7" d="M9,33c.26-5.42.33-15.22,5.07-15.22.12,0,14.41-5.92,30.87-5.92,3.79,0,4.73,10.76,4.8,17.84,0,1.46.12,2.92.2,4.38,0,.85.11,1.71.15,2.56,0,.35.11,1.28.56,1.19s.56-2,.61-2.38a67.49,67.49,0,0,0,.45-8.56c0-3.88-.1-9.91-3.48-15.6-1.19-2-2-4.42-4.43-6.06C38,1.33,26.35,3,19.69,5.21,15,6.74,10.3,8.64,8.65,13.28c-1.82,5.09-1.77,9.07-1.17,19.15.06,1.09.19,2.19.34,3.27a21,21,0,0,0,.36,2.17c.38,1.54.91.44.89-.52C9.05,35.89,8.95,34.44,9,33Z"/>
        <path class="cls-7" d="M46.34,7.09C45.71-7.41,17.6,4.72,14,5.38,5.07,7,1.43,1.26,1.43,1.26c-5.74,16.36,6,30,31.87,12.89,4.75-3.15,10.41-1.09,10.41-1.09,4.6,6,6.58,7,7.52,15.26,0,0,.69-5.76,1.89-11.75C54.37,10.3,51.54,6.38,46.34,7.09Z"/>
        <path class="cls-7" d="M8.18,37.87c0,.63,2.58,12.87,4.35,15.18s7.77,5.77,8.78,6c.79.18,6,1,8.23,1.4,2.19-.36,7.44-1.22,8.23-1.4,1-.23,7.12-4,8.78-6s5.19-16.85,4.23-15.9c-3.58,7.15-4.12,17.46-18.54,17.46-.71,0-2.13-1.11-2.7-1.58-.57.47-2,1.58-2.7,1.58C12.42,54.61,11.76,45,8.18,37.87Z"/>
        <path class="cls-7" d="M16.76,46.39c4,2.23,11.9.55,12.68-1,.78,1.53,8.67,3.21,12.68,1-6.31-1.26-9.53-4.14-12.68-3.17C26.29,42.25,23.07,45.13,16.76,46.39Z"/>
        <path class="cls-8" d="M14.53,65.88c.12.4.84,20.39.84,20.39h4L17.93,64.41Z"/>
        <path class="cls-8" d="M43.62,65.88c-.12.4-.84,20.39-.84,20.39h-4l1.46-21.87Z"/>
        <g>
          <circle class="cls-9" cx="18.53" cy="35.66" r="1.67"/>
          <circle class="cls-9" cx="40.4" cy="35.66" r="1.67"/>
        </g>
        <g>
          <path class="cls-10" d="M13.22,30.53c-.54-.93,2.36-1.36,5.3-1.34,4.93,0,7.57,2.45,5.2,2.34C21.95,31.45,13.38,30.8,13.22,30.53Z"/>
          <path class="cls-10" d="M45.71,30.74c.56-.92-2.33-1.41-5.27-1.45-4.93-.06-7.62,2.3-5.24,2.24C37,31.49,45.55,31,45.71,30.74Z"/>
        </g>
        <path class="cls-11" d="M25.88,42.08s0,0,0-.05a.33.33,0,0,1,.14-.24,35.74,35.74,0,0,0,2.66-9.43c.68,0-.67,7.23-1.26,8.94a12.43,12.43,0,0,1,2.08-.16c2,0,3.62.4,3.62.89s-1.62.89-3.62.89S26,42.55,25.88,42.08Z"/>
      </g>
    </g>
  </g>
</svg>
