<svg xmlns="http://www.w3.org/2000/svg" viewBox="0 0 52.26 84.99">
  <defs>
    <style>
      .cls-1 {
        fill: #61381b;
      }

      .cls-1, .cls-10, .cls-2, .cls-3, .cls-4, .cls-5, .cls-6, .cls-8, .cls-9 {
        fill-rule: evenodd;
      }

      .cls-2 {
        fill: #ef9095;
      }

      .cls-3 {
        fill: #f5b67e;
      }

      .cls-4 {
        fill: #7c5e64;
      }

      .cls-5 {
        fill: #f6c085;
      }

      .cls-6 {
        fill: #f8c997;
      }

      .cls-7 {
        fill: #3e3b3a;
      }

      .cls-8 {
        fill: #e5b17d;
      }

      .cls-9 {
        fill: #402412;
      }

      .cls-10 {
        fill: #d6825b;
      }
    </style>
  </defs>
  <title>avatar-8</title>
  <g id="Layer_2" data-name="Layer 2">
    <g id="OBJECTS">
      <g>
        <path class="cls-1" d="M8.62,10.79A106,106,0,0,0,3.77,21.46c-.73,1.89-1,14.73,6.42,25.06s23.76,9.18,24.06,9.76c.75,1.46,1.51,0,3,1.57a33.64,33.64,0,0,0,9-16.54c2.17-10.32-.69-17.66-.69-17.66Z"/>
        <path class="cls-2" d="M34.38,55.74a3.39,3.39,0,0,0-1.17,3c.34,1.05,4.6,2.17,5.16,1.66C41.95,57.1,36.12,55.11,34.38,55.74Z"/>
        <path class="cls-3" d="M35.4,72.29l10.48-7.91C50.47,65.89,51.8,78.91,52.26,85h-11Z"/>
        <path class="cls-3" d="M26,55.79H21.16v3.06c0,3.62-9.63,4-12.89,5C9.45,70.22,7.4,73,25.09,83.7h2.5c8.58-3.12,15.09-6.94,16.73-19.78C41,62.85,30.84,62.53,30.84,58.85V55.79Z"/>
        <path class="cls-3" d="M13.52,74.44c-.46-.35-7.14-10.06-7.14-10.06C1.79,65.89.47,78.91,0,85H11Z"/>
        <path class="cls-4" d="M8.27,63.84H7.94l-.1,0H7.4l-.13,0H6.81l-.07,0h0l-.1,0h0l-.07,0H6.43l-.08,0h0l-.09,0h0l-.08,0h0l-.07,0h0l-.06,0H6l-.05,0a54.37,54.37,0,0,1,1.72,8.74C7,77.72,4.46,80.85,6.3,85H46c1.84-4.14-.72-7.27-1.37-11.63a54.39,54.39,0,0,1,1.72-8.74l-.05,0h0l-.06,0h0l-.07,0h0l-.08,0h0l-.09,0h0l-.08,0h-.06l-.07,0h0l-.1,0h0l-.07,0H45l-.13,0h-.44l-.1,0H44a18.59,18.59,0,0,1-35.72,0Z"/>
        <g>
          <path class="cls-5" d="M11.77,31.93c.8,3.61-.79,6.61-3.52,7.26s-5.56-1.31-6.36-4.92.76-7.06,3.49-7.7S11,28.32,11.77,31.93Z"/>
          <path class="cls-5" d="M41.29,31.93c-.8,3.61.79,6.61,3.52,7.26s5.56-1.31,6.36-4.92-.76-7.06-3.49-7.7S42.1,28.32,41.29,31.93Z"/>
        </g>
        <path class="cls-6" d="M26.53,2.58h-.06l-2.85-.11V2.7h-.3A19.52,19.52,0,0,0,8.62,10.79c-3.49,4.74-4,10.72-3.68,16.44.71,14.7,8.94,31.21,21.59,31.34,12.65-.12,20.88-16.63,21.59-31.34.27-5.72-.19-11.7-3.68-16.44A19.52,19.52,0,0,0,29.73,2.71h-.3V2.47l-2.85.11Z"/>
        <path class="cls-1" d="M35.52,8.28c-.17.81,0,5.14,5,11.77s5.37,7.21,5.37,7.21.23,11.19.87,9.87,1.54-11,1.54-11A24.64,24.64,0,0,0,48.16,16c-1.27-5.19-2.87-7.15-5.07-8S35.52,8.28,35.52,8.28Z"/>
        <path class="cls-1" d="M7.76,22.3c-.87,1-3.68,1.09-3.68,1.09C4.21,24.29,5.42,38,6.56,37Z"/>
        <path class="cls-1" d="M45.85,27.26c.23-3.79,2.17-12.45,1.22-14.81C44.32,5.64,39.28,2.88,30.83,2a25.88,25.88,0,0,0-4.76,0C30.92,10,35,20.65,45.85,27.26Z"/>
        <path class="cls-1" d="M37.7,10.34C36,21,13.43,17.58,6,30.44-2.26,17.94,10.4-7.67,32.44,2.22Z"/>
        <g>
          <circle class="cls-7" cx="17.6" cy="34.78" r="1.67"/>
          <circle class="cls-7" cx="36.47" cy="34.78" r="1.67"/>
        </g>
        <path class="cls-8" d="M23.83,43.31s0,0,0-.05A.33.33,0,0,1,24,43a35.74,35.74,0,0,0,2.66-9.43c.68,0-.67,7.23-1.26,8.94a12.43,12.43,0,0,1,2.08-.16c2,0,3.62.4,3.62.89s-1.62.89-3.62.89S23.94,43.78,23.83,43.31Z"/>
        <g>
          <path class="cls-9" d="M31,30.75c-1,.41.66-2.28,5.53-2.38,5.68-.12,7.41,2.61,5.17,1.82A15,15,0,0,0,31,30.75Z"/>
          <path class="cls-9" d="M23.09,30.75c1,.41-.66-2.28-5.53-2.38-5.68-.12-7.41,2.61-5.17,1.82A15,15,0,0,1,23.09,30.75Z"/>
        </g>
        <path class="cls-10" d="M32.82,48.1c-1.1,3.54-11.09,3.54-12.19,0A10.77,10.77,0,0,0,32.82,48.1Z"/>
        <path class="cls-1" d="M29.32,65.84c-2.59,6.55-.64,8.61-.64,8.61l.3-3.69a58.25,58.25,0,0,1,1,7.46,26.94,26.94,0,0,1-1,6.76s4.63-2.51,6.9-6.46,1.5-11.4,1.5-11.4a19.38,19.38,0,0,0,.94,2.23,36.77,36.77,0,0,0,.3-6.3c-.11-1.28.14-2.85-.68-4C34.08,53.52,30.24,63.53,29.32,65.84Z"/>
      </g>
    </g>
  </g>
</svg>
