<svg xmlns="http://www.w3.org/2000/svg" viewBox="0 0 52.33 87.65">
  <defs>
    <style>
      .cls-1 {
        fill: #7d7873;
      }

      .cls-1, .cls-10, .cls-11, .cls-12, .cls-13, .cls-2, .cls-3, .cls-4, .cls-5, .cls-6, .cls-7, .cls-8, .cls-9 {
        fill-rule: evenodd;
      }

      .cls-2 {
        fill: #7f7a77;
      }

      .cls-3 {
        fill: #f5b67e;
      }

      .cls-4 {
        fill: #857e79;
      }

      .cls-5 {
        fill: #f6c085;
      }

      .cls-6 {
        fill: #f8c997;
      }

      .cls-7 {
        fill: #402412;
      }

      .cls-8 {
        fill: #756e6a;
      }

      .cls-9 {
        fill: #9f9993;
      }

      .cls-10 {
        fill: #3e3b3a;
      }

      .cls-11 {
        fill: #5a5858;
      }

      .cls-12 {
        fill: #d6825b;
      }

      .cls-13 {
        fill: #e5b17d;
      }
    </style>
  </defs>
  <title>avatar-5</title>
  <g id="Layer_2" data-name="Layer 2">
    <g id="OBJECTS">
      <g>
        <polygon class="cls-1" points="19.43 65.52 19.29 60.93 33.77 60.93 33.63 65.37 19.43 65.52"/>
        <path class="cls-2" d="M16.86,75c-.46-.35-10.77-5.2-10.77-5.2C1.5,71.27.47,81.58,0,87.65H11Z"/>
        <path class="cls-2" d="M35.14,75c.46-.35,10.77-5.2,10.77-5.2,4.59,1.51,5.62,11.82,6.09,17.9H41Z"/>
        <path class="cls-3" d="M26,58.45H21.16v3.06c0,1.9-.31,1.5-2.09,2.49a14.87,14.87,0,0,1-2.23,1.57C19,72.5,20.55,81.4,24.75,87.65h2.5C31.45,81.4,33,72.5,35.16,65.57A14.87,14.87,0,0,1,32.93,64c-1.77-1-2.09-.59-2.09-2.49V58.45Z"/>
        <path class="cls-4" d="M26.43,75.27s-1.51-2-2.21-3.12c-2.1-3.41-5.09-8.08-5.16-8.12-2.58,1.18-12,4.86-13,5.77.86,1.87,2.15,9.57,3.27,17.85H42.7c1.12-8.28,2.42-16,3.27-17.85-1.05-.91-10.46-4.6-13-5.77a59.24,59.24,0,0,1-4.1,8.12C27.93,73.51,26.43,75.27,26.43,75.27Z"/>
        <path class="cls-5" d="M39,36.9a6.61,6.61,0,0,0,5.22,7.92,6.42,6.42,0,0,0,7.72-5.37c.69-3.94-1.64-7.7-5.21-8.41S39.64,33,39,36.9Z"/>
        <path class="cls-5" d="M14,36.9A6.61,6.61,0,0,1,8.8,44.82a6.42,6.42,0,0,1-7.72-5.37C.39,35.52,2.72,31.75,6.29,31S13.33,33,14,36.9Z"/>
        <path class="cls-6" d="M44.32,13.45A19.52,19.52,0,0,0,29.61,5.37h-.3V5.13l-2.85.11-2.85-.11v.23h-.3A19.52,19.52,0,0,0,8.62,13.45c-3.49,4.74-4,10.72-3.68,16.44.21,4.32,1,11.31,1.19,15.63,5.55,20.77,35.5,21.11,40.68,0C47,41.2,47.79,34.22,48,29.9,48.27,24.17,47.81,18.2,44.32,13.45Z"/>
        <path class="cls-7" d="M8.79,21.42c-.28.6,1.31-5.4,4.79-5.5,3.64-.11,26.28,1.27,27.44-.25,3.84,4.86,6.38,24.8,6.59,24.75C48.77,40.2,49,29.86,49,28.73c0-5.28,1.53-15.44-8-21.77-5.87-3.89-18-4.28-24.77-2.08a17.88,17.88,0,0,0-10.9,10.2C3.42,20.2,3.47,24.2,4.08,34.34c.07,1.1.2,2.2.35,3.29a21.31,21.31,0,0,0,.37,2.18C5.75,43.67,5.84,26,8.79,21.42Z"/>
        <path class="cls-7" d="M7.41,16.05c.15.45.74,2.63,8.33,5.21a46,46,0,0,0,14.33,2.51,10.84,10.84,0,0,1-2.21-1.59S33.32,24,37.3,23.58,44.16,21,43.67,21A16.16,16.16,0,0,1,41,20a28.57,28.57,0,0,0,7.84-5.7c2.88-3.31,3.8-6.43,3.43-6.13s-2.82,1.53-2.45,1.1.67-5.33.67-5.33a16.58,16.58,0,0,1-2.76,1.59c-.61.12.67-4,.67-4s-5.88,1.1-9.25.61S33.87.61,28.91.37a17.53,17.53,0,0,0-8,1.23L21.75,0s-7,2-8.79,3.37A18.08,18.08,0,0,0,9.4,7.53,11,11,0,0,0,6.25,7a5,5,0,0,0-2,.4l3.19,1A7.19,7.19,0,0,0,4.9,9.83c-1.07.95-2,2.05-1.5,1.78a16.59,16.59,0,0,1,3.09-.52Z"/>
        <path class="cls-8" d="M21.48,68.2c.26,0,1.72.23,1.72.23l1,3.71-3.67-1.69Z"/>
        <path class="cls-9" d="M19.29,60.93l3.91,7.5s-4,4-4,3.78S17.43,65,17.57,64.68,19.29,60.93,19.29,60.93Z"/>
        <path class="cls-8" d="M31.57,68.2c-.26,0-1.72.23-1.72.23l-1,3.71,3.67-1.69Z"/>
        <path class="cls-9" d="M33.77,60.93l-3.91,7.5s4,4,4,3.78,1.81-7.17,1.67-7.54S33.77,60.93,33.77,60.93Z"/>
        <path class="cls-10" d="M7.57,31.34a6.8,6.8,0,0,0-1.62,3,2.51,2.51,0,0,0-1.11.27,1.12,1.12,0,0,0,0,1.28,2.77,2.77,0,0,0,1.09.17c0,6,3.23,10.28,9.4,10.06a8.13,8.13,0,0,0,7.18-4.37A15.66,15.66,0,0,0,24.29,37c.15-1.07.28-1.61.54-1.76a6.53,6.53,0,0,1,1.64-.14,6.53,6.53,0,0,1,1.64.14c.26.15.38.69.54,1.76a15.65,15.65,0,0,0,1.82,4.81,8.13,8.13,0,0,0,7.18,4.37c6.17.22,9.41-4.05,9.4-10.06a2.78,2.78,0,0,0,1.09-.17,1.12,1.12,0,0,0,0-1.28A2.51,2.51,0,0,0,47,34.35a6.81,6.81,0,0,0-1.62-3c-.84-.94-2.87-1.63-5.36-1.82-6.16-.48-20.43-.45-26.61-.06-2.7.17-4.94.89-5.84,1.89ZM24.8,34h0c-.15.12-.36-.26-.38-.38-.21-1.19.07-2.9-1.6-3.21h7.3c-1.67.31-1.39,2-1.6,3.21,0,.12-.23.49-.38.38a16.47,16.47,0,0,0-3.33,0Zm5.34-2.78h0a7.89,7.89,0,0,1,3.58-.92c2.76-.18,9.46-.32,11.43,2.1a5.19,5.19,0,0,1,1.19,3,14.43,14.43,0,0,1-.41,3.9c-1.17,4.34-4.06,6.35-8.33,6.12-5.67-.3-8.49-6.5-8.28-11.56.05-1.23.23-2.22.82-2.68Zm-7.35,0h0c.59.46.77,1.46.82,2.68.21,5.06-2.61,11.26-8.28,11.56-4.27.23-7.16-1.78-8.33-6.12a14.41,14.41,0,0,1-.41-3.9,5.19,5.19,0,0,1,1.19-3c2-2.41,8.67-2.28,11.43-2.1A7.89,7.89,0,0,1,22.79,31.17Z"/>
        <path class="cls-11" d="M7.65,32.25a5.28,5.28,0,0,0-1.21,3.1,14.67,14.67,0,0,0,.42,4,8.24,8.24,0,0,0,3.43,5.11,8.48,8.48,0,0,0,5,1.12c5.77-.31,8.64-6.61,8.43-11.76-.05-1.25-.23-2.26-.83-2.73a8,8,0,0,0-3.64-.94c-2.28-.15-7.2-.27-10,1A4.27,4.27,0,0,0,7.65,32.25Z"/>
        <path class="cls-11" d="M29.23,33.81C29,38.93,31.88,45.19,37.61,45.5a8.41,8.41,0,0,0,5-1.12A8.2,8.2,0,0,0,46,39.31a14.59,14.59,0,0,0,.41-3.94,5.25,5.25,0,0,0-1.2-3.08,4.23,4.23,0,0,0-1.57-1.12c-2.83-1.27-7.72-1.15-10-1a8,8,0,0,0-3.62.93C29.47,31.56,29.29,32.57,29.23,33.81Z"/>
        <path class="cls-12" d="M35,51.4a9.63,9.63,0,0,1-7.59,3.29,9.63,9.63,0,0,1-7.59-3.29,13.06,13.06,0,0,0,7.5,2.72A13.62,13.62,0,0,0,35,51.4Z"/>
        <path class="cls-13" d="M23.55,49.12s0,0,0-.05a.33.33,0,0,1,.14-.24,35.75,35.75,0,0,0,2.66-9.43c.68,0-.67,7.23-1.26,8.94a12.44,12.44,0,0,1,2.08-.16c2,0,3.62.4,3.62.89s-1.62.89-3.62.89S23.65,49.59,23.55,49.12Z"/>
      </g>
    </g>
  </g>
</svg>
