<svg xmlns="http://www.w3.org/2000/svg" viewBox="0 0 100 100.69">
  <defs>
    <style>
      .cls-1 {
        fill: #fff;
      }
    </style>
  </defs>
  <title>logo-1</title>
  <g id="Layer_2" data-name="Layer 2">
    <g id="Layer_1-2" data-name="Layer 1">
      <g>
        <path class="cls-1" d="M3.5,21.16S40,55.24,78.49,46c0,0-1.4,46.32-53.67,54.71,0,0,34.61-12.59,38.46-45.45C63.28,55.24,19.05,55.77,3.5,21.16Z"/>
        <g>
          <path class="cls-1" d="M30.79,80a40.5,40.5,0,0,1-5.93-4.9A40.06,40.06,0,0,1,16.52,63a60.68,60.68,0,0,1-9.29-7.41A46.46,46.46,0,0,0,20.11,79.89a47.29,47.29,0,0,0,6.9,5.7A50.91,50.91,0,0,0,30.79,80Z"/>
          <path class="cls-1" d="M86.29,13.71a46.8,46.8,0,0,0-66.18,0A47.17,47.17,0,0,0,13.51,22c1.57,1.18,3.41,2.51,5.49,3.9a40.37,40.37,0,0,1,5.86-7.42,40.08,40.08,0,1,1,44,65.28,61.35,61.35,0,0,1-10.17,9.46l-.14.1A46.8,46.8,0,0,0,100,46.8,46.49,46.49,0,0,0,86.29,13.71Z"/>
        </g>
        <path class="cls-1" d="M0,33.22S17.48,60.14,55.06,60.92c0,0-4.89,22.6-27.53,32.67,0,0,11.13-10.34,14.07-26C41.6,67.61,8.22,60.84,0,33.22Z"/>
        <path class="cls-1" d="M47.7,40s8.11-12,26.4-11.36A24.62,24.62,0,0,1,87,32.26s-7-.73-7.77,7.7C67.73,44.4,47.7,40,47.7,40Z"/>
      </g>
    </g>
  </g>
</svg>
